<svg width="29" height="18" viewBox="0 0 29 18" fill="none" xmlns="http://www.w3.org/2000/svg">
<path d="M8.46142 17.3984L1.19387 10.1309C1.03588 9.97286 0.924236 9.8017 0.858933 9.61738C0.792577 9.43306 0.759399 9.23557 0.759399 9.02492C0.759399 8.81427 0.792577 8.61678 0.858933 8.43246C0.924236 8.24813 1.03588 8.07698 1.19387 7.91899L8.50092 0.611941C8.79057 0.322292 9.14605 0.177467 9.56735 0.177467C9.98866 0.177467 10.3573 0.335457 10.6733 0.651438C10.9629 0.941086 11.1078 1.30973 11.1078 1.75737C11.1078 2.20501 10.9629 2.57365 10.6733 2.8633L6.09157 7.44502H26.9463C27.3939 7.44502 27.7689 7.59616 28.0712 7.89845C28.3745 8.20179 28.5262 8.57728 28.5262 9.02492C28.5262 9.47256 28.3745 9.84752 28.0712 10.1498C27.7689 10.4532 27.3939 10.6048 26.9463 10.6048H6.09157L10.7128 15.226C11.0024 15.5157 11.1473 15.8712 11.1473 16.2925C11.1473 16.7138 10.9893 17.0824 10.6733 17.3984C10.3836 17.6881 10.015 17.8329 9.56735 17.8329C9.11971 17.8329 8.75107 17.6881 8.46142 17.3984Z" fill="currentColor"/>
</svg>
